<?xml version="1.0" standalone="no"?>
<!DOCTYPE svg PUBLIC "-//W3C//DTD SVG 20010904//EN"
 "http://www.w3.org/TR/2001/REC-SVG-20010904/DTD/svg10.dtd">
<svg version="1.0" xmlns="http://www.w3.org/2000/svg"
 width="400.000000pt" height="400.000000pt" viewBox="0 0 400.000000 400.000000"
 preserveAspectRatio="xMidYMid meet">

<g transform="translate(0.000000,400.000000) scale(0.100000,-0.100000)"
fill="#000000" stroke="none">
<path d="M2175 3429 c-214 -3 -468 -7 -563 -8 l-172 -1 2 -337 3 -338 238 -3
237 -2 0 -25 c0 -22 -4 -25 -36 -25 -25 0 -33 4 -28 13 6 10 4 10 -7 0 -8 -9
-53 -14 -133 -15 l-121 -2 110 -6 110 -5 -37 -17 c-65 -31 -130 -40 -328 -48
-146 -5 -170 -7 -95 -9 l100 -3 -65 -23 c-36 -13 -60 -24 -54 -24 6 -1 37 8
70 20 35 12 71 18 89 15 22 -4 26 -3 15 4 -11 7 -1 10 37 10 72 0 194 25 242
49 40 21 131 29 131 12 0 -5 -18 -11 -41 -15 -92 -15 -128 -60 -71 -90 99 -51
337 -42 389 16 16 18 16 20 -3 38 -10 10 -41 25 -69 31 -77 20 -76 29 4 29
l72 0 65 -63 c80 -78 82 -98 18 -157 -57 -52 -106 -74 -214 -95 -47 -9 -109
-21 -138 -26 -102 -20 -46 -18 68 2 128 22 167 33 223 61 50 25 117 95 117
122 0 34 -35 82 -90 123 l-51 38 48 6 48 6 -63 1 c-37 1 -74 9 -90 18 -25 15
-25 15 -8 0 19 -15 17 -16 -27 -16 -44 0 -47 2 -47 25 0 15 5 25 13 24 6 -1
118 -1 249 0 l236 1 6 103 c9 176 15 597 8 595 -4 -1 -182 -5 -397 -9z m342
-171 c-4 -66 -7 -197 -7 -290 l0 -168 -130 0 -130 0 0 285 0 284 63 4 c34 2
95 4 136 5 l74 2 -6 -122z m-287 -173 l0 -285 -359 0 -358 0 -7 31 c-3 17 -6
143 -6 280 l0 248 83 4 c45 1 209 4 365 5 l282 2 0 -285z"/>
<path d="M2270 3270 c0 -19 7 -20 109 -20 61 0 112 3 114 8 3 4 -44 6 -104 4
-69 -2 -109 0 -109 7 0 6 32 12 73 14 l72 3 -77 2 c-72 2 -78 0 -78 -18z"/>
<path d="M2270 3193 c0 -13 3 -14 8 -6 5 8 44 13 112 16 l105 3 -112 2 c-102
2 -113 0 -113 -15z"/>
<path d="M2271 3107 c-1 -16 9 -17 111 -15 80 2 112 7 114 16 1 7 0 8 -3 2 -7
-15 -210 -13 -216 3 -3 7 -6 5 -6 -6z"/>
<path d="M1552 3273 c3 -16 22 -18 207 -21 113 -1 208 1 212 5 5 5 -86 7 -201
5 -138 -2 -210 1 -210 7 0 7 75 12 208 14 l207 2 -213 3 c-199 2 -213 1 -210
-15z"/>
<path d="M1550 3185 c0 -12 17 -15 98 -13 l97 2 -95 5 -95 5 100 6 100 6 -102
2 c-86 2 -103 -1 -103 -13z"/>
<path d="M1550 3103 c0 -13 3 -14 8 -6 6 9 57 13 177 16 l170 3 -177 2 c-164
2 -178 1 -178 -15z"/>
<path d="M1553 3020 c3 -13 36 -15 213 -15 l209 -1 -205 3 c-147 3 -207 7
-213 16 -6 9 -7 8 -4 -3z"/>
<path d="M1553 2930 c3 -13 31 -15 173 -15 l169 -1 -165 3 c-115 3 -167 7
-173 16 -6 9 -7 8 -4 -3z"/>
<path d="M830 3289 c-272 -50 -496 -92 -498 -94 -2 -2 0 -194 4 -428 l7 -425
83 28 c46 16 84 27 84 25 0 -2 -93 -171 -206 -374 l-206 -371 17 -44 c16 -41
21 -45 53 -48 l36 -3 100 -312 c55 -172 101 -311 104 -309 3 3 -166 563 -185
612 -4 11 7 14 55 14 l59 0 113 -380 c63 -209 115 -378 117 -376 3 3 -190 707
-204 744 -4 10 197 12 997 10 l1003 -3 211 -485 c116 -267 216 -491 220 -499
8 -12 62 -13 345 -7 184 4 337 9 339 11 2 2 85 219 183 482 99 263 194 505
210 537 l31 59 -249 502 -250 501 -12 -45 c-6 -24 -10 -46 -7 -48 2 -2 7 11
12 29 6 31 23 0 246 -447 l239 -480 -941 -3 c-517 -1 -1363 -1 -1880 0 l-939
3 203 364 c112 199 210 369 217 376 17 15 229 86 229 76 0 -4 -15 -12 -32 -19
-35 -12 -88 -56 -88 -72 0 -5 11 -17 25 -26 51 -33 263 3 345 58 78 53 63 88
-37 88 -54 0 -64 3 -61 16 2 11 64 38 198 85 107 38 200 69 207 69 10 0 13 70
13 350 0 193 -3 350 -7 349 -5 0 -231 -41 -503 -90z m460 -278 l0 -298 -122
-43 c-68 -24 -129 -45 -135 -48 -10 -3 -13 65 -13 320 l0 324 118 20 c64 12
125 22 135 23 16 1 17 -19 17 -298z m-280 -74 l0 -322 -307 -102 c-169 -57
-308 -102 -309 -100 -1 1 -5 169 -8 372 l-7 370 293 51 c161 28 303 52 316 53
l22 1 0 -323z m2870 -1292 c0 -4 -7 -19 -15 -35 l-16 -30 -842 0 c-463 0
-1297 -3 -1853 -7 l-1011 -6 -6 25 c-4 15 -10 33 -13 42 -6 15 158 16 1875 16
1035 0 1881 -2 1881 -5z m-103 -136 l-22 -61 -100 6 c-55 3 -200 9 -323 12
-198 6 -222 9 -218 23 3 9 8 28 12 43 l6 28 237 3 c130 1 280 3 333 5 l97 2
-22 -61z m-1198 -306 c85 -197 157 -361 160 -366 4 -4 56 157 116 358 l109
365 58 0 c32 0 58 -2 58 -4 0 -5 -269 -937 -276 -956 -4 -12 -424 929 -424
952 0 4 10 8 23 8 21 0 38 -34 176 -357z m668 205 c-3 -7 -5 -2 -5 12 0 14 2
19 5 13 2 -7 2 -19 0 -25z m47 -3 c-4 -10 0 -15 11 -15 11 0 15 5 11 16 -3 8
-2 12 4 9 15 -9 12 -32 -4 -38 -17 -7 -40 18 -31 33 9 15 15 12 9 -5z m97 -28
c-8 -8 -14 -8 -23 2 -11 10 -10 11 5 6 12 -5 17 -2 18 11 0 12 2 14 6 6 3 -8
0 -19 -6 -25z m52 16 c-5 -12 -2 -15 10 -10 9 3 17 2 17 -3 0 -6 -9 -10 -20
-10 -19 0 -27 20 -13 33 11 11 13 8 6 -10z m194 -5 c-3 -8 -6 -5 -6 6 -1 11 2
17 5 13 3 -3 4 -12 1 -19z m-400 -20 c-3 -8 -6 -5 -6 6 -1 11 2 17 5 13 3 -3
4 -12 1 -19z m390 -20 c-3 -8 -6 -5 -6 6 -1 11 2 17 5 13 3 -3 4 -12 1 -19z
m-178 -18 c134 -5 246 -12 248 -14 5 -4 -27 -87 -38 -100 -8 -9 -609 14 -609
23 0 6 18 76 24 97 3 6 29 9 67 7 35 -2 174 -7 308 -13z m-49 -121 c135 -7
247 -13 249 -15 8 -7 -35 -107 -47 -112 -15 -5 -574 18 -581 24 -2 2 1 29 8
59 l12 55 57 0 c31 0 167 -5 302 -11z m-51 -134 c134 -8 245 -16 248 -18 2 -2
-34 -100 -81 -218 l-84 -214 -271 -3 c-149 -1 -271 2 -271 6 0 8 106 422 115
450 5 15 40 15 344 -3z"/>
<path d="M1251 3224 c0 -11 3 -14 6 -6 3 7 2 16 -1 19 -3 4 -6 -2 -5 -13z"/>
<path d="M1108 3213 c7 -3 16 -2 19 1 4 3 -2 6 -13 5 -11 0 -14 -3 -6 -6z"/>
<path d="M1040 3190 c0 -11 4 -20 10 -20 5 0 7 6 4 14 -3 8 2 16 13 19 14 4
14 5 -4 6 -17 1 -23 -5 -23 -19z"/>
<path d="M1198 3203 c7 -3 16 -2 19 1 4 3 -2 6 -13 5 -11 0 -14 -3 -6 -6z"/>
<path d="M1138 3193 c6 -2 18 -2 25 0 6 3 1 5 -13 5 -14 0 -19 -2 -12 -5z"/>
<path d="M1078 3183 c6 -2 18 -2 25 0 6 3 1 5 -13 5 -14 0 -19 -2 -12 -5z"/>
<path d="M1168 3153 c7 -3 16 -2 19 1 4 3 -2 6 -13 5 -11 0 -14 -3 -6 -6z"/>
<path d="M1108 3143 c6 -2 18 -2 25 0 6 3 1 5 -13 5 -14 0 -19 -2 -12 -5z"/>
<path d="M1044 3129 c-3 -6 -1 -16 5 -22 9 -9 11 -8 6 5 -4 11 0 18 12 21 15
4 16 5 1 6 -9 0 -20 -4 -24 -10z"/>
<path d="M1218 3133 c7 -3 16 -2 19 1 4 3 -2 6 -13 5 -11 0 -14 -3 -6 -6z"/>
<path d="M1148 3123 c6 -2 18 -2 25 0 6 3 1 5 -13 5 -14 0 -19 -2 -12 -5z"/>
<path d="M1088 3113 c6 -2 18 -2 25 0 6 3 1 5 -13 5 -14 0 -19 -2 -12 -5z"/>
<path d="M1178 3083 c7 -3 16 -2 19 1 4 3 -2 6 -13 5 -11 0 -14 -3 -6 -6z"/>
<path d="M1118 3073 c7 -3 16 -2 19 1 4 3 -2 6 -13 5 -11 0 -14 -3 -6 -6z"/>
<path d="M1050 3050 c0 -11 4 -20 10 -20 5 0 7 6 4 14 -3 8 2 16 13 19 14 4
14 5 -4 6 -17 1 -23 -5 -23 -19z"/>
<path d="M1098 3043 c7 -3 16 -2 19 1 4 3 -2 6 -13 5 -11 0 -14 -3 -6 -6z"/>
<path d="M688 3133 c7 -3 16 -2 19 1 4 3 -2 6 -13 5 -11 0 -14 -3 -6 -6z"/>
<path d="M628 3123 c7 -3 16 -2 19 1 4 3 -2 6 -13 5 -11 0 -14 -3 -6 -6z"/>
<path d="M568 3113 c6 -2 18 -2 25 0 6 3 1 5 -13 5 -14 0 -19 -2 -12 -5z"/>
<path d="M508 3103 c6 -2 18 -2 25 0 6 3 1 5 -13 5 -14 0 -19 -2 -12 -5z"/>
<path d="M448 3093 c6 -2 18 -2 25 0 6 3 1 5 -13 5 -14 0 -19 -2 -12 -5z"/>
<path d="M410 3075 c0 -10 9 -15 28 -14 23 2 24 2 4 6 -12 2 -20 9 -17 14 4 5
1 9 -4 9 -6 0 -11 -7 -11 -15z"/>
<path d="M548 3083 c7 -3 16 -2 19 1 4 3 -2 6 -13 5 -11 0 -14 -3 -6 -6z"/>
<path d="M488 3073 c7 -3 16 -2 19 1 4 3 -2 6 -13 5 -11 0 -14 -3 -6 -6z"/>
<path d="M658 3033 c7 -3 16 -2 19 1 4 3 -2 6 -13 5 -11 0 -14 -3 -6 -6z"/>
<path d="M598 3023 c7 -3 16 -2 19 1 4 3 -2 6 -13 5 -11 0 -14 -3 -6 -6z"/>
<path d="M538 3013 c6 -2 18 -2 25 0 6 3 1 5 -13 5 -14 0 -19 -2 -12 -5z"/>
<path d="M488 3003 c7 -3 16 -2 19 1 4 3 -2 6 -13 5 -11 0 -14 -3 -6 -6z"/>
<path d="M417 2993 c-10 -10 -8 -33 3 -33 5 0 7 6 4 14 -4 9 3 16 18 19 20 4
21 4 2 6 -11 0 -24 -2 -27 -6z"/>
<path d="M578 2993 c7 -3 16 -2 19 1 4 3 -2 6 -13 5 -11 0 -14 -3 -6 -6z"/>
<path d="M518 2983 c7 -3 16 -2 19 1 4 3 -2 6 -13 5 -11 0 -14 -3 -6 -6z"/>
<path d="M458 2973 c6 -2 18 -2 25 0 6 3 1 5 -13 5 -14 0 -19 -2 -12 -5z"/>
<path d="M598 2933 c7 -3 16 -2 19 1 4 3 -2 6 -13 5 -11 0 -14 -3 -6 -6z"/>
<path d="M538 2923 c6 -2 18 -2 25 0 6 3 1 5 -13 5 -14 0 -19 -2 -12 -5z"/>
<path d="M478 2913 c6 -2 18 -2 25 0 6 3 1 5 -13 5 -14 0 -19 -2 -12 -5z"/>
<path d="M414 2899 c-3 -6 -1 -16 5 -22 9 -9 11 -8 6 5 -5 12 0 18 17 21 22 4
22 4 1 6 -12 0 -25 -4 -29 -10z"/>
<path d="M518 2893 c7 -3 16 -2 19 1 4 3 -2 6 -13 5 -11 0 -14 -3 -6 -6z"/>
<path d="M458 2883 c6 -2 18 -2 25 0 6 3 1 5 -13 5 -14 0 -19 -2 -12 -5z"/>
<path d="M618 2843 c7 -3 16 -2 19 1 4 3 -2 6 -13 5 -11 0 -14 -3 -6 -6z"/>
<path d="M558 2833 c6 -2 18 -2 25 0 6 3 1 5 -13 5 -14 0 -19 -2 -12 -5z"/>
<path d="M508 2823 c7 -3 16 -2 19 1 4 3 -2 6 -13 5 -11 0 -14 -3 -6 -6z"/>
<path d="M658 2823 c7 -3 16 -2 19 1 4 3 -2 6 -13 5 -11 0 -14 -3 -6 -6z"/>
<path d="M448 2813 c6 -2 18 -2 25 0 6 3 1 5 -13 5 -14 0 -19 -2 -12 -5z"/>
<path d="M598 2813 c7 -3 16 -2 19 1 4 3 -2 6 -13 5 -11 0 -14 -3 -6 -6z"/>
<path d="M420 2797 c0 -10 8 -17 18 -17 9 0 13 4 7 8 -5 4 -13 11 -17 16 -5 5
-8 2 -8 -7z"/>
<path d="M538 2803 c7 -3 16 -2 19 1 4 3 -2 6 -13 5 -11 0 -14 -3 -6 -6z"/>
<path d="M478 2793 c6 -2 18 -2 25 0 6 3 1 5 -13 5 -14 0 -19 -2 -12 -5z"/>
<path d="M548 2723 c7 -3 16 -2 19 1 4 3 -2 6 -13 5 -11 0 -14 -3 -6 -6z"/>
<path d="M668 2723 c7 -3 16 -2 19 1 4 3 -2 6 -13 5 -11 0 -14 -3 -6 -6z"/>
<path d="M508 2713 c7 -3 16 -2 19 1 4 3 -2 6 -13 5 -11 0 -14 -3 -6 -6z"/>
<path d="M578 2703 c7 -3 16 -2 19 1 4 3 -2 6 -13 5 -11 0 -14 -3 -6 -6z"/>
<path d="M430 2688 c0 -12 7 -18 23 -17 15 0 17 2 7 6 -8 3 -18 11 -22 17 -5
7 -8 4 -8 -6z"/>
<path d="M538 2693 c7 -3 16 -2 19 1 4 3 -2 6 -13 5 -11 0 -14 -3 -6 -6z"/>
<path d="M488 2683 c7 -3 16 -2 19 1 4 3 -2 6 -13 5 -11 0 -14 -3 -6 -6z"/>
<path d="M478 2623 c7 -3 16 -2 19 1 4 3 -2 6 -13 5 -11 0 -14 -3 -6 -6z"/>
<path d="M431 2598 c0 -16 2 -18 6 -8 3 8 11 18 17 22 7 5 4 8 -6 8 -12 0 -18
-7 -17 -22z"/>
<path d="M528 2553 c7 -3 16 -2 19 1 4 3 -2 6 -13 5 -11 0 -14 -3 -6 -6z"/>
<path d="M458 2533 c7 -3 16 -2 19 1 4 3 -2 6 -13 5 -11 0 -14 -3 -6 -6z"/>
<path d="M548 2533 c7 -3 16 -2 19 1 4 3 -2 6 -13 5 -11 0 -14 -3 -6 -6z"/>
<path d="M430 2517 c0 -10 8 -17 18 -17 9 0 13 4 7 8 -5 4 -13 11 -17 16 -5 5
-8 2 -8 -7z"/>
<path d="M478 2513 c7 -3 16 -2 19 1 4 3 -2 6 -13 5 -11 0 -14 -3 -6 -6z"/>
<path d="M3622 1533 c-14 -26 -16 -63 -2 -63 12 0 23 42 18 67 -4 16 -5 16
-16 -4z m5 -35 c-3 -8 -6 -5 -6 6 -1 11 2 17 5 13 3 -3 4 -12 1 -19z"/>
<path d="M3660 1525 c-14 -36 -13 -58 3 -52 6 2 11 16 10 31 -1 14 2 24 8 21
5 -4 9 -2 9 4 0 23 -21 20 -30 -4z"/>
<path d="M3163 1524 c-3 -8 -1 -20 5 -26 15 -15 43 8 35 28 -7 19 -32 18 -40
-2z m28 -7 c-1 -12 -15 -9 -19 4 -3 6 1 10 8 8 6 -3 11 -8 11 -12z"/>
<path d="M3237 1528 c-6 -18 11 -48 27 -48 8 0 19 6 25 14 13 15 5 46 -12 46
-8 0 -8 -3 0 -11 15 -15 5 -39 -14 -39 -11 0 -14 7 -11 25 5 25 -7 35 -15 13z"/>
<path d="M3700 1521 c-14 -27 -13 -54 3 -48 7 2 11 17 9 33 -2 22 0 26 8 14 8
-13 10 -13 10 3 0 23 -17 22 -30 -2z"/>
<path d="M3198 693 c12 -2 32 -2 45 0 12 2 2 4 -23 4 -25 0 -35 -2 -22 -4z"/>
<path d="M3150 682 c0 -28 110 -44 152 -21 17 9 18 13 7 20 -8 5 -18 9 -24 9
-5 0 -3 -4 5 -10 12 -8 12 -10 -3 -16 -28 -10 -118 2 -128 17 -6 10 -9 11 -9
1z"/>
<path d="M2750 2858 l-35 -214 64 -13 c82 -15 91 -8 10 9 -58 12 -61 14 -56
39 3 14 18 106 33 204 26 164 29 177 49 177 39 0 270 -31 419 -56 82 -14 151
-22 154 -19 3 3 1 5 -4 5 -5 0 -47 7 -94 15 -134 24 -338 53 -425 60 l-80 7
-35 -214z"/>
<path d="M2838 3033 c6 -2 18 -2 25 0 6 3 1 5 -13 5 -14 0 -19 -2 -12 -5z"/>
<path d="M2908 3023 c6 -2 18 -2 25 0 6 3 1 5 -13 5 -14 0 -19 -2 -12 -5z"/>
<path d="M2978 3013 c6 -2 18 -2 25 0 6 3 1 5 -13 5 -14 0 -19 -2 -12 -5z"/>
<path d="M3038 3003 c6 -2 18 -2 25 0 6 3 1 5 -13 5 -14 0 -19 -2 -12 -5z"/>
<path d="M3098 2993 c6 -2 18 -2 25 0 6 3 1 5 -13 5 -14 0 -19 -2 -12 -5z"/>
<path d="M3158 2983 c6 -2 18 -2 25 0 6 3 1 5 -13 5 -14 0 -19 -2 -12 -5z"/>
<path d="M2820 2968 c0 -12 7 -18 23 -17 15 0 17 2 7 6 -8 3 -18 11 -22 17 -5
7 -8 4 -8 -6z"/>
<path d="M2853 2973 c9 -2 23 -2 30 0 6 3 -1 5 -18 5 -16 0 -22 -2 -12 -5z"/>
<path d="M3218 2973 c6 -2 18 -2 25 0 6 3 1 5 -13 5 -14 0 -19 -2 -12 -5z"/>
<path d="M3408 2973 c6 -2 18 -2 25 0 6 3 1 5 -13 5 -14 0 -19 -2 -12 -5z"/>
<path d="M2918 2963 c6 -2 18 -2 25 0 6 3 1 5 -13 5 -14 0 -19 -2 -12 -5z"/>
<path d="M3182 2950 c0 -14 2 -19 5 -12 2 6 2 18 0 25 -3 6 -5 1 -5 -13z"/>
<path d="M3268 2963 c6 -2 18 -2 25 0 6 3 1 5 -13 5 -14 0 -19 -2 -12 -5z"/>
<path d="M3463 2963 c9 -2 17 -7 17 -10 0 -3 -16 -66 -36 -140 -19 -74 -34
-137 -31 -139 4 -4 77 265 77 285 0 6 -10 10 -22 10 -17 -1 -19 -2 -5 -6z"/>
<path d="M2791 2944 c0 -11 3 -14 6 -6 3 7 2 16 -1 19 -3 4 -6 -2 -5 -13z"/>
<path d="M2988 2953 c6 -2 18 -2 25 0 6 3 1 5 -13 5 -14 0 -19 -2 -12 -5z"/>
<path d="M3318 2953 c6 -2 18 -2 25 0 6 3 1 5 -13 5 -14 0 -19 -2 -12 -5z"/>
<path d="M2883 2943 c9 -2 25 -2 35 0 9 3 1 5 -18 5 -19 0 -27 -2 -17 -5z"/>
<path d="M3368 2943 c6 -2 18 -2 25 0 6 3 1 5 -13 5 -14 0 -19 -2 -12 -5z"/>
<path d="M2953 2933 c9 -2 23 -2 30 0 6 3 -1 5 -18 5 -16 0 -22 -2 -12 -5z"/>
<path d="M3423 2933 c9 -2 17 -9 17 -14 0 -5 -20 -91 -45 -191 -25 -99 -44
-182 -42 -185 5 -4 97 359 97 382 0 9 -9 15 -22 14 -17 -1 -19 -2 -5 -6z"/>
<path d="M2810 2915 c0 -8 5 -15 11 -15 5 0 8 4 4 9 -3 5 7 12 22 14 26 4 26
4 -4 6 -23 1 -33 -3 -33 -14z"/>
<path d="M3018 2923 c6 -2 18 -2 25 0 6 3 1 5 -13 5 -14 0 -19 -2 -12 -5z"/>
<path d="M2893 2913 c9 -2 23 -2 30 0 6 3 -1 5 -18 5 -16 0 -22 -2 -12 -5z"/>
<path d="M3172 2900 c0 -14 2 -19 5 -12 2 6 2 18 0 25 -3 6 -5 1 -5 -13z"/>
<path d="M2782 2885 c0 -16 2 -22 5 -12 2 9 2 23 0 30 -3 6 -5 -1 -5 -18z"/>
<path d="M2958 2903 c6 -2 18 -2 25 0 6 3 1 5 -13 5 -14 0 -19 -2 -12 -5z"/>
<path d="M2853 2893 c9 -2 23 -2 30 0 6 3 -1 5 -18 5 -16 0 -22 -2 -12 -5z"/>
<path d="M3023 2893 c9 -2 23 -2 30 0 6 3 -1 5 -18 5 -16 0 -22 -2 -12 -5z"/>
<path d="M2923 2883 c9 -2 23 -2 30 0 6 3 -1 5 -18 5 -16 0 -22 -2 -12 -5z"/>
<path d="M3088 2883 c6 -2 18 -2 25 0 6 3 1 5 -13 5 -14 0 -19 -2 -12 -5z"/>
<path d="M2800 2861 c0 -15 10 -20 56 -26 31 -4 58 -5 60 -2 3 3 -20 8 -51 12
-43 5 -55 10 -51 21 3 8 1 14 -4 14 -6 0 -10 -8 -10 -19z"/>
<path d="M2988 2873 c6 -2 18 -2 25 0 6 3 1 5 -13 5 -14 0 -19 -2 -12 -5z"/>
<path d="M2843 2863 c9 -2 23 -2 30 0 6 3 -1 5 -18 5 -16 0 -22 -2 -12 -5z"/>
<path d="M3058 2863 c7 -3 16 -2 19 1 4 3 -2 6 -13 5 -11 0 -14 -3 -6 -6z"/>
<path d="M3162 2850 c0 -14 2 -19 5 -12 2 6 2 18 0 25 -3 6 -5 1 -5 -13z"/>
<path d="M2913 2853 c9 -2 23 -2 30 0 6 3 -1 5 -18 5 -16 0 -22 -2 -12 -5z"/>
<path d="M2978 2843 c6 -2 18 -2 25 0 6 3 1 5 -13 5 -14 0 -19 -2 -12 -5z"/>
<path d="M2772 2815 c0 -16 2 -22 5 -12 2 9 2 23 0 30 -3 6 -5 -1 -5 -18z"/>
<path d="M2943 2823 c9 -2 23 -2 30 0 6 3 -1 5 -18 5 -16 0 -22 -2 -12 -5z"/>
<path d="M2790 2805 c0 -8 8 -15 18 -15 14 0 14 2 3 9 -11 7 -7 10 15 14 l29
4 -32 2 c-23 1 -33 -3 -33 -14z"/>
<path d="M3008 2813 c6 -2 18 -2 25 0 6 3 1 5 -13 5 -14 0 -19 -2 -12 -5z"/>
<path d="M3141 2759 c-7 -33 -10 -63 -8 -65 2 -3 10 23 16 57 7 33 10 63 8 65
-2 3 -10 -23 -16 -57z"/>
<path d="M2873 2803 c9 -2 23 -2 30 0 6 3 -1 5 -18 5 -16 0 -22 -2 -12 -5z"/>
<path d="M2928 2793 c6 -2 18 -2 25 0 6 3 1 5 -13 5 -14 0 -19 -2 -12 -5z"/>
<path d="M2838 2783 c6 -2 18 -2 25 0 6 3 1 5 -13 5 -14 0 -19 -2 -12 -5z"/>
<path d="M2998 2783 c7 -3 16 -2 19 1 4 3 -2 6 -13 5 -11 0 -14 -3 -6 -6z"/>
<path d="M2898 2773 c6 -2 18 -2 25 0 6 3 1 5 -13 5 -14 0 -19 -2 -12 -5z"/>
<path d="M2762 2745 c0 -16 2 -22 5 -12 2 9 2 23 0 30 -3 6 -5 -1 -5 -18z"/>
<path d="M2958 2763 c6 -2 18 -2 25 0 6 3 1 5 -13 5 -14 0 -19 -2 -12 -5z"/>
<path d="M2780 2745 c0 -8 5 -15 11 -15 5 0 8 4 4 9 -3 5 5 12 17 14 20 4 19
4 -4 6 -19 1 -28 -4 -28 -14z"/>
<path d="M3018 2753 c6 -2 18 -2 25 0 6 3 1 5 -13 5 -14 0 -19 -2 -12 -5z"/>
<path d="M2858 2743 c6 -2 18 -2 25 0 6 3 1 5 -13 5 -14 0 -19 -2 -12 -5z"/>
<path d="M2918 2733 c6 -2 18 -2 25 0 6 3 1 5 -13 5 -14 0 -19 -2 -12 -5z"/>
<path d="M2823 2723 c9 -2 23 -2 30 0 6 3 -1 5 -18 5 -16 0 -22 -2 -12 -5z"/>
<path d="M2978 2723 c7 -3 16 -2 19 1 4 3 -2 6 -13 5 -11 0 -14 -3 -6 -6z"/>
<path d="M2878 2713 c6 -2 18 -2 25 0 6 3 1 5 -13 5 -14 0 -19 -2 -12 -5z"/>
<path d="M2938 2703 c6 -2 18 -2 25 0 6 3 1 5 -13 5 -14 0 -19 -2 -12 -5z"/>
<path d="M2753 2686 c1 -11 9 -21 17 -23 10 -3 11 -2 4 4 -6 4 -14 15 -17 23
-5 11 -6 9 -4 -4z"/>
<path d="M2998 2693 c7 -3 16 -2 19 1 4 3 -2 6 -13 5 -11 0 -14 -3 -6 -6z"/>
<path d="M3122 2660 c0 -14 2 -19 5 -12 2 6 2 18 0 25 -3 6 -5 1 -5 -13z"/>
<path d="M2808 2653 c7 -3 16 -2 19 1 4 3 -2 6 -13 5 -11 0 -14 -3 -6 -6z"/>
<path d="M2848 2643 c6 -2 18 -2 25 0 6 3 1 5 -13 5 -14 0 -19 -2 -12 -5z"/>
<path d="M2898 2633 c7 -3 16 -2 19 1 4 3 -2 6 -13 5 -11 0 -14 -3 -6 -6z"/>
<path d="M2938 2623 c6 -2 18 -2 25 0 6 3 1 5 -13 5 -14 0 -19 -2 -12 -5z"/>
<path d="M3111 2618 c0 -11 -10 -18 -23 -19 -14 -1 -8 -5 16 -10 21 -5 41 -7
44 -4 3 3 -2 5 -11 5 -8 0 -18 10 -20 23 -3 14 -5 16 -6 5z"/>
<path d="M2725 2610 c17 -7 17 -9 3 -9 -10 -1 -18 -5 -18 -10 0 -4 16 -3 35 3
33 10 34 12 13 18 -34 9 -57 8 -33 -2z"/>
<path d="M2880 2610 c14 -4 34 -8 45 -8 16 0 15 2 -5 8 -14 4 -34 8 -45 8 -16
0 -15 -2 5 -8z"/>
<path d="M2988 2613 c6 -2 18 -2 25 0 6 3 1 5 -13 5 -14 0 -19 -2 -12 -5z"/>
<path d="M3038 2603 c7 -3 16 -2 19 1 4 3 -2 6 -13 5 -11 0 -14 -3 -6 -6z"/>
<path d="M1225 2590 c-3 -6 1 -7 9 -4 18 7 21 14 7 14 -6 0 -13 -4 -16 -10z"/>
<path d="M2665 2590 c-3 -5 -1 -10 4 -10 6 0 11 5 11 10 0 6 -2 10 -4 10 -3 0
-8 -4 -11 -10z"/>
<path d="M2806 2589 c5 -9 -1 -10 -20 -5 -17 4 -34 1 -49 -9 -24 -17 -51 -20
-42 -5 8 13 -21 2 -60 -23 l-30 -18 35 6 c26 5 31 3 20 -4 -9 -7 -10 -11 -3
-11 6 0 15 5 18 10 4 6 11 8 16 4 6 -3 3 -11 -8 -19 -16 -12 -15 -13 10 -8 30
6 33 13 15 31 -9 9 -8 12 6 12 9 0 15 -4 11 -9 -3 -5 0 -13 6 -17 8 -4 4 -12
-12 -21 -24 -13 -24 -13 5 -7 22 5 27 4 21 -6 -5 -9 -4 -11 4 -6 18 12 63 -2
55 -17 -5 -9 -4 -9 7 1 17 16 29 15 29 -2 0 -7 10 -16 23 -20 38 -10 43 -6 12
9 l-30 14 29 -6 c18 -3 31 -1 36 7 4 7 13 9 20 5 10 -6 9 -10 -4 -17 -18 -10
-22 -28 -5 -28 5 0 7 5 4 10 -3 6 0 10 9 10 8 0 16 5 18 12 3 7 10 8 17 4 11
-7 11 -10 0 -17 -11 -7 -11 -9 -1 -9 7 0 20 7 28 15 12 12 12 15 2 15 -20 0
-90 21 -86 25 2 3 20 0 39 -5 19 -5 47 -11 63 -14 29 -5 48 -16 28 -16 -14 0
-52 -31 -52 -42 0 -5 5 -8 11 -8 5 0 7 5 4 10 -3 6 -1 10 5 10 6 0 20 9 32 19
11 11 27 17 36 13 13 -5 13 -7 2 -10 -8 -3 -26 -16 -39 -29 -22 -19 -23 -23
-8 -23 10 0 15 5 12 10 -3 6 1 10 9 10 9 0 16 4 16 8 0 4 13 16 30 25 23 14
36 16 62 8 18 -5 27 -10 21 -10 -7 -1 -29 -16 -49 -35 -32 -30 -34 -34 -15
-39 14 -3 43 12 95 51 42 31 74 58 71 60 -3 3 -71 -43 -85 -58 -20 -22 -70
-49 -75 -40 -3 5 -2 10 3 10 4 0 17 8 28 18 10 9 39 32 63 50 27 19 38 32 28
32 -9 0 -17 -4 -17 -10 0 -5 -13 -7 -30 -3 -19 3 -30 1 -30 -5 0 -6 -7 -9 -16
-5 -15 5 -15 7 0 15 21 12 20 28 -1 28 -15 0 -16 -2 -3 -10 13 -8 13 -10 -2
-10 -9 0 -18 -4 -20 -10 -2 -6 -8 -6 -18 0 -13 8 -12 10 3 10 9 0 17 6 17 14
0 16 -48 27 -92 21 -26 -4 -29 -3 -13 4 15 7 16 10 5 10 -9 1 -22 -5 -29 -11
-11 -11 -13 -10 -8 5 4 11 1 17 -9 17 -8 0 -12 -4 -9 -10 3 -5 2 -10 -4 -10
-5 0 -18 -3 -28 -6 -17 -5 -17 -5 0 6 30 19 20 33 -20 26 -28 -5 -34 -4 -23 3
13 9 13 11 -2 11 -10 0 -18 -4 -18 -9 0 -5 -10 -13 -22 -17 -13 -4 -26 -12
-30 -18 -5 -8 -10 -8 -19 1 -8 8 -3 13 20 18 17 4 29 10 26 15 -3 5 1 11 7 13
8 3 6 6 -4 6 -10 1 -18 -3 -18 -9 0 -5 -4 -10 -10 -10 -5 0 -10 7 -10 15 0 8
-5 15 -11 15 -5 0 -7 -5 -3 -11z m-39 -16 c-9 -2 -15 -9 -12 -14 4 -5 -1 -9
-11 -9 -13 0 -14 3 -4 15 7 8 20 14 29 14 13 -1 13 -2 -2 -6z m43 -10 c-8 -4
-20 -12 -27 -19 -10 -9 -5 -13 25 -19 31 -6 34 -9 17 -15 -28 -12 -43 -12 -25
0 12 8 11 10 -7 10 -13 0 -23 -5 -23 -11 0 -5 -5 -7 -11 -3 -8 4 -7 9 2 15 11
7 9 9 -6 10 -14 0 -16 2 -5 6 8 4 21 12 28 20 7 7 21 13 30 12 14 0 14 -2 2
-6z m-120 -7 c0 -11 -19 -15 -25 -6 -3 5 1 10 9 10 9 0 16 -2 16 -4z m245 -6
c-27 -12 -43 -12 -25 0 8 5 22 9 30 9 10 0 8 -3 -5 -9z m-55 -10 c-12 -8 -12
-10 -1 -10 8 0 12 -2 10 -5 -3 -2 -16 -1 -29 2 -22 6 -23 7 -4 14 27 11 42 10
24 -1z m220 -20 c14 -4 19 -8 12 -9 -7 -1 -20 -8 -28 -16 -9 -8 -23 -15 -32
-14 -14 0 -13 2 3 9 11 5 16 9 10 9 -5 1 -3 6 5 11 11 7 12 10 2 10 -7 0 -20
-7 -28 -15 -9 -8 -23 -15 -32 -14 -14 0 -14 2 -2 6 8 4 21 12 28 20 15 14 25
15 62 3z m-195 -14 c-11 -8 -24 -12 -29 -8 -5 3 -1 9 10 13 31 12 39 10 19 -5z
m100 4 c-27 -12 -43 -12 -25 0 8 5 22 9 30 9 10 0 8 -3 -5 -9z m-150 -20 c13
-6 15 -9 5 -9 -8 0 -22 4 -30 9 -18 12 -2 12 25 0z m252 -16 c-3 -3 -12 -4
-19 -1 -8 3 -5 6 6 6 11 1 17 -2 13 -5z m100 0 c-3 -3 -12 -4 -19 -1 -8 3 -5
6 6 6 11 1 17 -2 13 -5z"/>
<path d="M2970 2590 c14 -4 34 -8 45 -8 16 0 15 2 -5 8 -14 4 -34 8 -45 8 -16
0 -15 -2 5 -8z"/>
<path d="M1540 2570 c8 -5 20 -10 25 -10 6 0 3 5 -5 10 -8 5 -19 10 -25 10 -5
0 -3 -5 5 -10z"/>
<path d="M2490 2529 c-108 -58 -123 -70 -115 -90 5 -14 692 -235 701 -226 2 2
-150 51 -338 110 -187 59 -343 109 -347 112 -3 3 0 10 8 14 7 5 12 12 11 17
-1 4 36 29 84 54 78 42 107 60 95 60 -2 0 -47 -23 -99 -51z"/>
<path d="M3048 2573 c7 -3 16 -2 19 1 4 3 -2 6 -13 5 -11 0 -14 -3 -6 -6z"/>
<path d="M3168 2573 c6 -2 18 -2 25 0 6 3 1 5 -13 5 -14 0 -19 -2 -12 -5z"/>
<path d="M3088 2563 c6 -2 18 -2 25 0 6 3 1 5 -13 5 -14 0 -19 -2 -12 -5z"/>
<path d="M3230 2560 c14 -4 34 -8 45 -8 16 0 15 2 -5 8 -14 4 -34 8 -45 8 -16
0 -15 -2 5 -8z"/>
<path d="M1590 2550 c8 -5 20 -10 25 -10 6 0 3 5 -5 10 -8 5 -19 10 -25 10 -5
0 -3 -5 5 -10z"/>
<path d="M3138 2553 c7 -3 16 -2 19 1 4 3 -2 6 -13 5 -11 0 -14 -3 -6 -6z"/>
<path d="M1183 2526 c1 -17 9 -31 17 -33 10 -3 11 -2 4 4 -7 4 -14 19 -17 33
-4 22 -5 21 -4 -4z"/>
<path d="M3308 2543 c6 -2 18 -2 25 0 6 3 1 5 -13 5 -14 0 -19 -2 -12 -5z"/>
<path d="M3371 2534 c0 -11 3 -14 6 -6 3 7 2 16 -1 19 -3 4 -6 -2 -5 -13z"/>
<path d="M3228 2533 c7 -3 16 -2 19 1 4 3 -2 6 -13 5 -11 0 -14 -3 -6 -6z"/>
<path d="M1240 2520 c0 -5 5 -10 10 -10 6 0 10 5 10 10 0 6 -4 10 -10 10 -5 0
-10 -4 -10 -10z"/>
<path d="M1670 2520 c8 -5 20 -10 25 -10 6 0 3 5 -5 10 -8 5 -19 10 -25 10 -5
0 -3 -5 5 -10z"/>
<path d="M3318 2513 c7 -3 16 -2 19 1 4 3 -2 6 -13 5 -11 0 -14 -3 -6 -6z"/>
<path d="M1719 2501 c7 -5 9 -11 5 -13 -5 -3 -3 -3 4 -2 6 2 12 -3 12 -10 0
-8 2 -21 6 -29 4 -11 -25 -25 -116 -57 l-122 -43 -76 31 c-41 18 -77 30 -79
29 -2 -2 32 -19 74 -37 l78 -33 128 44 128 43 -6 36 c-7 34 -19 50 -40 50 -5
0 -4 -4 4 -9z"/>
<path d="M3188 2503 c6 -2 18 -2 25 0 6 3 1 5 -13 5 -14 0 -19 -2 -12 -5z"/>
<path d="M3228 2380 c-75 -72 -143 -128 -150 -125 -82 28 -451 135 -454 132
-2 -2 44 -18 104 -36 326 -98 361 -111 364 -132 2 -15 30 8 133 113 l130 132
-123 -118 c-68 -65 -127 -115 -130 -111 -4 4 52 62 123 130 82 78 133 118 137
111 5 -6 8 -2 8 12 0 12 -1 22 -2 21 -2 0 -65 -58 -140 -129z"/>
<path d="M1243 2471 c1 -14 9 -26 17 -28 10 -3 11 -2 4 4 -7 4 -14 17 -17 28
-5 16 -5 15 -4 -4z"/>
<path d="M1410 2450 c8 -5 20 -10 25 -10 6 0 3 5 -5 10 -8 5 -19 10 -25 10 -5
0 -3 -5 5 -10z"/>
<path d="M1705 2451 c-6 -11 9 -23 19 -14 9 9 7 23 -3 23 -6 0 -12 -4 -16 -9z"/>
<path d="M3125 2450 c3 -5 1 -10 -5 -10 -6 0 -23 -11 -38 -25 -22 -21 -24 -25
-9 -25 10 0 15 5 12 10 -3 6 -3 10 2 10 4 0 22 11 38 25 24 19 26 24 12 25
-10 0 -15 -4 -12 -10z"/>
<path d="M2435 2440 c11 -5 27 -9 35 -9 9 0 8 4 -5 9 -11 5 -27 9 -35 9 -9 0
-8 -4 5 -9z"/>
<path d="M2788 2443 c7 -3 16 -2 19 1 4 3 -2 6 -13 5 -11 0 -14 -3 -6 -6z"/>
<path d="M1300 2425 c14 -8 30 -14 35 -14 6 0 -1 6 -15 14 -14 8 -29 14 -35
14 -5 0 1 -6 15 -14z"/>
<path d="M1477 2425 c22 -10 39 -12 55 -6 21 9 21 9 -7 8 -16 0 -41 2 -55 6
-16 4 -14 2 7 -8z"/>
<path d="M2635 2421 c-6 -11 13 -26 22 -17 4 3 1 6 -6 6 -7 0 -9 5 -6 10 3 6
4 10 1 10 -3 0 -7 -4 -11 -9z"/>
<path d="M2550 2405 c19 -7 42 -13 50 -13 8 0 -1 6 -20 13 -19 7 -42 13 -50
13 -8 0 1 -6 20 -13z"/>
<path d="M2898 2413 c7 -3 16 -2 19 1 4 3 -2 6 -13 5 -11 0 -14 -3 -6 -6z"/>
<path d="M1457 2399 c7 -7 15 -10 18 -7 3 3 -2 9 -12 12 -14 6 -15 5 -6 -5z"/>
<path d="M1553 2403 c-7 -2 -13 -8 -13 -13 0 -10 38 -1 46 11 6 10 -13 11 -33
2z"/>
<path d="M2933 2403 c8 -7 -49 -48 -78 -56 -17 -4 -17 -5 -2 -6 9 0 35 11 57
25 40 26 51 44 28 44 -6 0 -8 -3 -5 -7z"/>
<path d="M1840 2300 c-8 -5 -10 -10 -5 -10 6 0 17 5 25 10 8 5 11 10 5 10 -5
0 -17 -5 -25 -10z"/>
<path d="M1773 2261 c-23 -16 -47 -39 -55 -50 -14 -19 -26 -21 -199 -24 -101
-1 88 -2 421 -2 343 0 427 1 193 2 -236 2 -413 7 -413 12 0 9 37 43 80 73 14
9 22 17 19 17 -3 1 -24 -12 -46 -28z"/>
<path d="M807 2210 c-41 -13 -97 -58 -108 -87 -11 -29 13 -83 41 -90 16 -4 15
-7 -6 -28 -13 -13 -24 -33 -24 -45 0 -11 1 -20 3 -20 1 0 26 9 55 20 67 26
116 26 142 0 39 -39 12 -96 -50 -105 l-35 -5 31 10 c17 5 39 19 49 31 18 19
18 23 4 47 -21 38 -65 40 -157 6 -74 -27 -75 -27 -128 -10 -66 21 -114 59
-114 92 0 18 11 29 48 48 26 13 65 27 85 31 22 4 39 14 42 25 3 11 22 32 41
49 l34 31 -32 -6 c-134 -24 -217 -53 -260 -92 -24 -20 -33 -76 -20 -121 14
-44 74 -104 120 -119 19 -7 64 -15 100 -18 37 -4 73 -12 81 -18 8 -6 42 -10
75 -10 79 2 161 36 181 75 21 40 19 102 -4 130 -17 22 -18 26 -4 52 21 41 13
86 -19 110 -31 23 -124 32 -171 17z m131 -66 c27 -19 28 -39 2 -62 l-21 -17
23 -7 c13 -4 -12 -6 -54 -5 -59 2 -81 7 -93 20 -8 9 -10 12 -3 7 15 -13 89
-13 123 0 14 5 28 17 32 26 16 43 -93 61 -141 23 -14 -11 -26 -16 -26 -10 0
35 118 54 158 25z m-109 -98 c-2 -2 -17 -6 -34 -10 -22 -5 -26 -4 -15 4 14 9
59 15 49 6z m44 -17 c-34 -4 -76 -15 -95 -24 -18 -10 -28 -12 -22 -5 19 20 87
39 134 38 41 0 40 -1 -17 -9z m94 -5 c-3 -3 -12 -4 -19 -1 -8 3 -5 6 6 6 11 1
17 -2 13 -5z m-154 -181 c-7 -2 -21 -2 -30 0 -10 3 -4 5 12 5 17 0 24 -2 18
-5z"/>
<path d="M1305 2149 c-27 -50 -104 -363 -92 -370 33 -21 1308 -22 1403 -1 l31
7 -22 75 c-13 41 -28 113 -34 160 -11 82 -29 165 -35 158 -2 -1 4 -42 14 -90
10 -48 20 -111 22 -140 l3 -53 -672 -3 c-636 -2 -673 -1 -673 15 0 24 46 194
64 238 18 43 12 46 -9 4z"/>
<path d="M2801 2153 c0 -10 7 -34 15 -53 13 -33 14 -33 9 -5 -3 17 -8 38 -11
48 -5 16 13 17 289 17 l294 0 71 -127 c69 -125 100 -189 128 -265 l13 -38
-324 0 c-319 0 -324 0 -330 21 -4 11 -9 18 -12 16 -2 -3 0 -15 7 -26 11 -21
15 -21 338 -19 l327 3 -2 23 c-4 32 -60 152 -140 300 l-67 122 -303 0 c-282 0
-303 -1 -302 -17z"/>
<path d="M1788 2153 c289 -3 342 -5 342 -18 0 -12 -53 -14 -360 -12 -198 1
-360 -1 -360 -5 0 -5 34 -8 75 -8 60 0 75 -3 75 -15 0 -10 -11 -15 -35 -15
-21 0 -35 5 -35 13 0 9 -3 8 -9 -2 -6 -9 -21 -12 -45 -9 -32 3 -36 1 -36 -18
0 -42 -11 -54 -49 -56 l-36 -1 35 -4 c19 -3 38 -10 42 -16 5 -7 8 0 8 16 0 24
4 27 34 27 28 0 35 -4 39 -22 l4 -23 2 23 c1 18 7 22 37 22 29 0 35 -3 30 -16
-3 -9 -6 -22 -6 -30 0 -11 -18 -14 -77 -16 l-78 -2 75 -3 c43 -3 78 -9 82 -16
6 -9 8 -9 8 0 0 10 57 13 245 13 206 0 245 -3 245 -15 0 -11 -21 -15 -102 -18
-57 -1 60 -4 260 -5 l362 -2 -1 33 c0 17 -4 50 -9 72 -7 32 -8 27 -4 -27 l6
-68 -76 0 c-74 0 -75 0 -79 28 l-4 27 -2 -27 -1 -28 -171 0 c-166 0 -171 1
-166 20 4 17 0 20 -34 20 -21 0 -39 5 -39 10 0 6 31 10 74 10 63 0 75 -3 79
-17 4 -17 5 -17 6 0 1 13 10 17 40 17 29 0 41 -5 44 -17 4 -17 5 -17 6 0 1 13
10 17 35 17 28 0 35 -4 39 -22 l4 -23 2 22 c1 18 8 22 44 26 l42 4 -42 1 -43
2 0 43 0 42 -85 -3 c-72 -3 -85 -1 -85 12 0 14 17 16 119 16 l120 0 4 -52 3
-53 2 53 2 52 34 0 c35 0 35 0 39 -52 l3 -53 2 53 c2 50 3 52 31 52 23 0 31
-5 34 -22 3 -18 5 -17 6 7 l1 30 -200 -3 c-177 -2 -200 -1 -200 13 0 14 23 15
195 13 107 -2 195 0 195 5 0 4 -244 6 -542 5 -403 -2 -454 -3 -200 -5z m-68
-55 c0 -10 2 -10 8 -1 4 7 30 12 60 11 51 0 52 -1 48 -26 -2 -15 -5 -30 -5
-34 -1 -5 -10 -8 -21 -8 -15 0 -20 7 -21 28 l-2 27 -4 -27 c-4 -23 -9 -28 -34
-28 -23 0 -29 5 -30 23 l-2 22 -4 -22 c-4 -19 -11 -23 -39 -23 -30 0 -34 3
-35 28 l-2 27 -4 -27 -4 -27 -110 0 c-90 -1 -109 2 -109 14 0 19 70 21 71 3 0
-10 2 -10 6 0 2 7 22 12 44 12 32 0 39 3 39 20 0 18 7 20 75 20 53 0 75 -4 75
-12z m201 0 c0 -10 2 -10 6 0 7 18 53 15 53 -3 0 -12 -14 -15 -65 -15 -51 0
-65 3 -65 15 0 19 70 21 71 3z m129 -3 c0 -10 -10 -15 -30 -15 -20 0 -30 5
-30 15 0 10 10 15 30 15 20 0 30 -5 30 -15z m80 0 c0 -10 -11 -15 -35 -15 -24
0 -35 5 -35 15 0 10 11 15 35 15 24 0 35 -5 35 -15z m-220 -40 c0 -10 -11 -15
-35 -15 -26 0 -33 3 -29 15 4 9 19 15 35 15 19 0 29 -5 29 -15z m68 3 c-7 -20
-58 -23 -58 -4 0 11 10 16 31 16 20 0 29 -4 27 -12z m72 -3 c0 -10 -11 -15
-35 -15 -26 0 -33 3 -29 15 4 9 19 15 35 15 19 0 29 -5 29 -15z m80 0 c0 -10
-11 -15 -35 -15 -24 0 -35 5 -35 15 0 10 11 15 35 15 24 0 35 -5 35 -15z m90
0 c0 -11 -11 -15 -40 -15 -29 0 -40 4 -40 15 0 11 11 15 40 15 29 0 40 -4 40
-15z m80 0 c0 -10 -11 -15 -35 -15 -24 0 -35 5 -35 15 0 10 11 15 35 15 24 0
35 -5 35 -15z m-679 -47 l2 -23 4 23 c4 20 10 22 74 22 68 0 69 0 70 -27 l2
-28 4 28 c3 21 10 27 29 27 26 0 27 -3 18 -37 -6 -20 -13 -23 -60 -23 -52 0
-54 1 -55 28 l-2 27 -4 -27 c-4 -28 -5 -28 -79 -28 -41 0 -74 3 -74 8 1 34 14
52 41 52 23 0 29 -5 30 -22z m279 7 c0 -10 -10 -15 -30 -15 -20 0 -30 5 -30
15 0 10 10 15 30 15 20 0 30 -5 30 -15z m70 -15 c0 -27 -3 -30 -30 -30 -25 0
-30 4 -30 23 0 13 3 27 7 30 3 4 17 7 30 7 19 0 23 -5 23 -30z m80 15 c0 -10
-11 -15 -35 -15 -24 0 -35 5 -35 15 0 10 11 15 35 15 24 0 35 -5 35 -15z m80
0 c0 -10 -11 -15 -35 -15 -24 0 -35 5 -35 15 0 10 11 15 35 15 24 0 35 -5 35
-15z m90 0 c0 -11 -11 -15 -40 -15 -29 0 -40 4 -40 15 0 11 11 15 40 15 29 0
40 -4 40 -15z m80 0 c0 -10 -11 -15 -35 -15 -24 0 -35 5 -35 15 0 10 11 15 35
15 24 0 35 -5 35 -15z m-400 -35 c0 -5 -16 -10 -35 -10 -19 0 -35 5 -35 10 0
6 16 10 35 10 19 0 35 -4 35 -10z"/>
<path d="M3047 2043 c-13 -13 -7 -44 21 -106 39 -83 59 -100 131 -105 105 -8
125 27 75 127 -27 54 -72 92 -109 90 -13 0 -9 -4 12 -10 40 -12 87 -69 103
-125 17 -59 4 -74 -62 -74 -62 0 -85 12 -85 45 0 26 -28 75 -43 75 -34 0 -55
75 -22 83 14 4 14 5 1 6 -9 0 -19 -2 -22 -6z"/>
<path d="M3132 2030 c7 -10 14 -18 15 -16 6 6 -9 36 -18 36 -5 0 -4 -9 3 -20z"/>
<path d="M2850 1995 c0 -5 5 -17 10 -25 5 -8 10 -10 10 -5 0 6 -5 17 -10 25
-5 8 -10 11 -10 5z"/>
<path d="M2471 1974 c0 -11 3 -14 6 -6 3 7 2 16 -1 19 -3 4 -6 -2 -5 -13z"/>
<path d="M2880 1915 c0 -5 5 -17 10 -25 5 -8 10 -10 10 -5 0 6 -5 17 -10 25
-5 8 -10 11 -10 5z"/>
<path d="M2900 1865 c0 -5 5 -17 10 -25 5 -8 10 -10 10 -5 0 6 -5 17 -10 25
-5 8 -10 11 -10 5z"/>
<path d="M2920 1815 c0 -5 5 -17 10 -25 5 -8 10 -10 10 -5 0 6 -5 17 -10 25
-5 8 -10 11 -10 5z"/>
<path d="M422 880 c0 -8 6 -31 13 -50 7 -19 13 -28 13 -20 0 8 -6 31 -13 50
-7 19 -13 28 -13 20z"/>
<path d="M571 780 c0 -8 4 -24 9 -35 5 -13 9 -14 9 -5 0 8 -4 24 -9 35 -5 13
-9 14 -9 5z"/>
</g>
</svg>
